<?xml version="1.0" standalone="no"?><!DOCTYPE svg PUBLIC "-//W3C//DTD SVG 1.1//EN" "http://www.w3.org/Graphics/SVG/1.1/DTD/svg11.dtd"><svg t="1562209268508" class="icon" viewBox="0 0 1024 1024" version="1.1" xmlns="http://www.w3.org/2000/svg" p-id="2086" xmlns:xlink="http://www.w3.org/1999/xlink" width="128" height="128"><defs><style type="text/css"></style></defs><path d="M994 844h-32V514a30 30 0 0 0-30-30h-90V154a30 30 0 0 0-30-30H392a30 30 0 0 0-30 30v600.08a149.384 149.384 0 0 0-60-27.064V152c0-23.912-9.2-46.696-25.888-64.16C258.952 69.888 236.176 60 212 60h-37.16C162.456 25.08 129.112 0 90 0 40.376 0 0 40.376 0 90S40.376 180 90 180c39.112 0 72.456-25.08 84.84-60H212c15.984 0 30 14.96 30 32v575.016c-68.384 13.936-120 74.544-120 146.984C122 956.712 189.288 1024 272 1024c72.44 0 133.04-51.816 146.984-120.2h308.176a90.752 90.752 0 0 0-5.16 30.2c0 49.624 40.376 90 90 90s90-40.376 90-90c0-10.512-1.832-20.608-5.16-30h97.16a30 30 0 0 0 0-60zM90 120a30.032 30.032 0 0 1-30-30 30.032 30.032 0 0 1 30-30A30.032 30.032 0 0 1 120 90 30.032 30.032 0 0 1 90 120zM272 964c-49.624 0-90-40.376-90-90S222.376 784 272 784s90 40.376 90 90S321.624 964 272 964zM542 184h120v60h-120V184z m-120 0h60v90A30 30 0 0 0 512 304h180a30 30 0 0 0 30-30V184h60v300h-360V184z m300 360v60h-120V544h120z m90 420a30.032 30.032 0 0 1-30-30 30.032 30.032 0 0 1 30-30 30.032 30.032 0 0 1 30 30 30.032 30.032 0 0 1-30 30z m90-120h-480V544h120v90A30 30 0 0 0 572 664H752a30 30 0 0 0 30-30V544h120v300zM752 724H572a30 30 0 0 0 0 60H752a30 30 0 0 0 0-60z m-60-360a30 30 0 0 1 0 60H512a30 30 0 0 1 0-60h180z m-390 510l-0.008 0.152 0.008 0.144a30.336 30.336 0 0 1-30.304 30.304 30.336 30.336 0 0 1-30.296-30.304 30.336 30.336 0 0 1 30.296-30.296l0.16 0.008 0.144-0.008a30 30 0 0 1 30 30z" fill="#2c2c2c" p-id="2087"></path></svg>